<svg xmlns="http://www.w3.org/2000/svg" viewBox="0 0 64 64" role="img" aria-label="Songguo">
  <defs><clipPath id="sg-clip"><path d="M32 2 C42 14 49 25 49 36 C49 47.5 41.5 54 32 54 C22.5 54 15 47.5 15 36 C15 25 22 14 32 2 Z"/></clipPath></defs>
  <rect x="30.9" y="53" width="2.2" height="5.6" rx="1.1" fill="#3F8F5B"/>
  <g clip-path="url(#sg-clip)">
    <rect x="10" y="0" width="44" height="56" fill="#1F5634"/>
    <g fill="#226038">
      <rect x="-5.23" y="-5.23" width="10.47" height="10.47" rx="1.3" transform="translate(11.5,52.6) rotate(45)"/>
      <rect x="-5.23" y="-5.23" width="10.47" height="10.47" rx="1.3" transform="translate(19.7,52.6) rotate(45)"/>
      <rect x="-5.23" y="-5.23" width="10.47" height="10.47" rx="1.3" transform="translate(27.9,52.6) rotate(45)"/>
      <rect x="-5.23" y="-5.23" width="10.47" height="10.47" rx="1.3" transform="translate(36.1,52.6) rotate(45)"/>
      <rect x="-5.23" y="-5.23" width="10.47" height="10.47" rx="1.3" transform="translate(44.3,52.6) rotate(45)"/>
      <rect x="-5.23" y="-5.23" width="10.47" height="10.47" rx="1.3" transform="translate(52.5,52.6) rotate(45)"/>
    </g>
    <g fill="#2b6b42">
      <rect x="-5.23" y="-5.23" width="10.47" height="10.47" rx="1.3" transform="translate(7.4,47.2) rotate(45)"/>
      <rect x="-5.23" y="-5.23" width="10.47" height="10.47" rx="1.3" transform="translate(15.6,47.2) rotate(45)"/>
      <rect x="-5.23" y="-5.23" width="10.47" height="10.47" rx="1.3" transform="translate(23.8,47.2) rotate(45)"/>
      <rect x="-5.23" y="-5.23" width="10.47" height="10.47" rx="1.3" transform="translate(32,47.2) rotate(45)"/>
      <rect x="-5.23" y="-5.23" width="10.47" height="10.47" rx="1.3" transform="translate(40.2,47.2) rotate(45)"/>
      <rect x="-5.23" y="-5.23" width="10.47" height="10.47" rx="1.3" transform="translate(48.4,47.2) rotate(45)"/>
      <rect x="-5.23" y="-5.23" width="10.47" height="10.47" rx="1.3" transform="translate(56.6,47.2) rotate(45)"/>
    </g>
    <g fill="#34764d">
      <rect x="-5.23" y="-5.23" width="10.47" height="10.47" rx="1.3" transform="translate(11.5,41.8) rotate(45)"/>
      <rect x="-5.23" y="-5.23" width="10.47" height="10.47" rx="1.3" transform="translate(19.7,41.8) rotate(45)"/>
      <rect x="-5.23" y="-5.23" width="10.47" height="10.47" rx="1.3" transform="translate(27.9,41.8) rotate(45)"/>
      <rect x="-5.23" y="-5.23" width="10.47" height="10.47" rx="1.3" transform="translate(36.1,41.8) rotate(45)"/>
      <rect x="-5.23" y="-5.23" width="10.47" height="10.47" rx="1.3" transform="translate(44.3,41.8) rotate(45)"/>
      <rect x="-5.23" y="-5.23" width="10.47" height="10.47" rx="1.3" transform="translate(52.5,41.8) rotate(45)"/>
    </g>
    <g fill="#3d8157">
      <rect x="-5.23" y="-5.23" width="10.47" height="10.47" rx="1.3" transform="translate(7.4,36.4) rotate(45)"/>
      <rect x="-5.23" y="-5.23" width="10.47" height="10.47" rx="1.3" transform="translate(15.6,36.4) rotate(45)"/>
      <rect x="-5.23" y="-5.23" width="10.47" height="10.47" rx="1.3" transform="translate(23.8,36.4) rotate(45)"/>
      <rect x="-5.23" y="-5.23" width="10.47" height="10.47" rx="1.3" transform="translate(32,36.4) rotate(45)"/>
      <rect x="-5.23" y="-5.23" width="10.47" height="10.47" rx="1.3" transform="translate(40.2,36.4) rotate(45)"/>
      <rect x="-5.23" y="-5.23" width="10.47" height="10.47" rx="1.3" transform="translate(48.4,36.4) rotate(45)"/>
      <rect x="-5.23" y="-5.23" width="10.47" height="10.47" rx="1.3" transform="translate(56.6,36.4) rotate(45)"/>
    </g>
    <g fill="#468c61">
      <rect x="-5.23" y="-5.23" width="10.47" height="10.47" rx="1.3" transform="translate(11.5,31) rotate(45)"/>
      <rect x="-5.23" y="-5.23" width="10.47" height="10.47" rx="1.3" transform="translate(19.7,31) rotate(45)"/>
      <rect x="-5.23" y="-5.23" width="10.47" height="10.47" rx="1.3" transform="translate(27.9,31) rotate(45)"/>
      <rect x="-5.23" y="-5.23" width="10.47" height="10.47" rx="1.3" transform="translate(36.1,31) rotate(45)"/>
      <rect x="-5.23" y="-5.23" width="10.47" height="10.47" rx="1.3" transform="translate(44.3,31) rotate(45)"/>
      <rect x="-5.23" y="-5.23" width="10.47" height="10.47" rx="1.3" transform="translate(52.5,31) rotate(45)"/>
    </g>
    <g fill="#50986c">
      <rect x="-5.23" y="-5.23" width="10.47" height="10.47" rx="1.3" transform="translate(7.4,25.6) rotate(45)"/>
      <rect x="-5.23" y="-5.23" width="10.47" height="10.47" rx="1.3" transform="translate(15.6,25.6) rotate(45)"/>
      <rect x="-5.23" y="-5.23" width="10.47" height="10.47" rx="1.3" transform="translate(23.8,25.6) rotate(45)"/>
      <rect x="-5.23" y="-5.23" width="10.47" height="10.47" rx="1.3" transform="translate(32,25.6) rotate(45)"/>
      <rect x="-5.23" y="-5.23" width="10.47" height="10.47" rx="1.3" transform="translate(40.2,25.6) rotate(45)"/>
      <rect x="-5.23" y="-5.23" width="10.47" height="10.47" rx="1.3" transform="translate(48.4,25.6) rotate(45)"/>
      <rect x="-5.23" y="-5.23" width="10.47" height="10.47" rx="1.3" transform="translate(56.6,25.6) rotate(45)"/>
    </g>
    <g fill="#59a376">
      <rect x="-5.23" y="-5.23" width="10.47" height="10.47" rx="1.3" transform="translate(11.5,20.2) rotate(45)"/>
      <rect x="-5.23" y="-5.23" width="10.47" height="10.47" rx="1.3" transform="translate(19.7,20.2) rotate(45)"/>
      <rect x="-5.23" y="-5.23" width="10.47" height="10.47" rx="1.3" transform="translate(27.9,20.2) rotate(45)"/>
      <rect x="-5.23" y="-5.23" width="10.47" height="10.47" rx="1.3" transform="translate(36.1,20.2) rotate(45)"/>
      <rect x="-5.23" y="-5.23" width="10.47" height="10.47" rx="1.3" transform="translate(44.3,20.2) rotate(45)"/>
      <rect x="-5.23" y="-5.23" width="10.47" height="10.47" rx="1.3" transform="translate(52.5,20.2) rotate(45)"/>
    </g>
    <g fill="#62ae80">
      <rect x="-5.23" y="-5.23" width="10.47" height="10.47" rx="1.3" transform="translate(7.4,14.8) rotate(45)"/>
      <rect x="-5.23" y="-5.23" width="10.47" height="10.47" rx="1.3" transform="translate(15.6,14.8) rotate(45)"/>
      <rect x="-5.23" y="-5.23" width="10.47" height="10.47" rx="1.3" transform="translate(23.8,14.8) rotate(45)"/>
      <rect x="-5.23" y="-5.23" width="10.47" height="10.47" rx="1.3" transform="translate(32,14.8) rotate(45)"/>
      <rect x="-5.23" y="-5.23" width="10.47" height="10.47" rx="1.3" transform="translate(40.2,14.8) rotate(45)"/>
      <rect x="-5.23" y="-5.23" width="10.47" height="10.47" rx="1.3" transform="translate(48.4,14.8) rotate(45)"/>
      <rect x="-5.23" y="-5.23" width="10.47" height="10.47" rx="1.3" transform="translate(56.6,14.8) rotate(45)"/>
    </g>
    <g fill="#6bb98b">
      <rect x="-5.23" y="-5.23" width="10.47" height="10.47" rx="1.3" transform="translate(11.5,9.4) rotate(45)"/>
      <rect x="-5.23" y="-5.23" width="10.47" height="10.47" rx="1.3" transform="translate(19.7,9.4) rotate(45)"/>
      <rect x="-5.23" y="-5.23" width="10.47" height="10.47" rx="1.3" transform="translate(27.9,9.4) rotate(45)"/>
      <rect x="-5.23" y="-5.23" width="10.47" height="10.47" rx="1.3" transform="translate(36.1,9.4) rotate(45)"/>
      <rect x="-5.23" y="-5.23" width="10.47" height="10.47" rx="1.3" transform="translate(44.3,9.4) rotate(45)"/>
      <rect x="-5.23" y="-5.23" width="10.47" height="10.47" rx="1.3" transform="translate(52.5,9.4) rotate(45)"/>
    </g>
    <g fill="#74c495">
      <rect x="-5.23" y="-5.23" width="10.47" height="10.47" rx="1.3" transform="translate(7.4,4) rotate(45)"/>
      <rect x="-5.23" y="-5.23" width="10.47" height="10.47" rx="1.3" transform="translate(15.6,4) rotate(45)"/>
      <rect x="-5.23" y="-5.23" width="10.47" height="10.47" rx="1.3" transform="translate(23.8,4) rotate(45)"/>
      <rect x="-5.23" y="-5.23" width="10.47" height="10.47" rx="1.3" transform="translate(32,4) rotate(45)"/>
      <rect x="-5.23" y="-5.23" width="10.47" height="10.47" rx="1.3" transform="translate(40.2,4) rotate(45)"/>
      <rect x="-5.23" y="-5.23" width="10.47" height="10.47" rx="1.3" transform="translate(48.4,4) rotate(45)"/>
      <rect x="-5.23" y="-5.23" width="10.47" height="10.47" rx="1.3" transform="translate(56.6,4) rotate(45)"/>
    </g>
  </g>
</svg>
